# xmcd
#
# Track frame offsets:
#	150
#	10792
#	32774
#	41074
#	59151
#	77530
#	90445
#	102712
#	117064
#	142029
#	158718
#	171088
#	183827
#	201352
#	216376
#	226931
#	247761
#	261093
#	275258
#	283617
#	305622
#	317479
#
# Disc length: 4390
#
# Revision: 1
# Processed by: cddbd v1.5.1PL0 Copyright (c) Steve Scherf et al.
# Submitted via: VisiTrax 2.9.5.181 - For more info visit www.synapsa.com
# Normalized: r0:DSETVAR1
#
DISCID=31112416
DTITLE=Various Artist - Cowpunks
DYEAR=1996
DGENRE=Country
TTITLE0=The V-Roys - Long time leavin'
TTITLE1=BlackBoot Trio - The last days of wine and roses
TTITLE2=Ray Condo and His Hardrock Goners - Something I said
TTITLE3=The Shivers - Gentle
TTITLE4=Golden Smog - He's a dick
TTITLE5=Bonepony - Feast of life
TTITLE6=The Flaming Stars - Back of my mind
TTITLE7=Furnaceface - We love you, Tipper Gore
TTITLE8=Cake - Jesus wrote a blank check
TTITLE9=Lambchop - Playboy, the shit
TTITLE10=Freakwater - Withered and died
TTITLE11=Uncle Tupelo - Still be aroound
TTITLE12=The Vidalias - Questioningly
TTITLE13=The Coal Porters - Six days on the round
TTITLE14=Medicine Hat - C'mon here
TTITLE15=Go To Blazes - Underneath the battle
TTITLE16=Chris Cacavas and Junkyard Love - Bellyfull of bullets
TTITLE17=Toni Price - Something
TTITLE18=The Beat Farmers - Country western song
TTITLE19=Bad Livers - Wild Bill Jones
TTITLE20=Sparklehorse - Heart of darkness
TTITLE21=Townes Van Zandt - The hole (live)
EXTD=
EXTT0=23. No such thing as sin - Greg Garing\n24. let's go burn ole Nashville down - Mojo Nixon and Jello Biafra
EXTT1=
EXTT2=
EXTT3=
EXTT4=
EXTT5=
EXTT6=
EXTT7=
EXTT8=
EXTT9=
EXTT10=
EXTT11=
EXTT12=
EXTT13=
EXTT14=
EXTT15=
EXTT16=
EXTT17=
EXTT18=
EXTT19=
EXTT20=
EXTT21=
PLAYORDER=
